Coordinates
version=1
nRows=14
nColumns=24
inDegrees=yes

Units are S.I. units (second, meters, Newtons, ...)
Angles are in degrees.

endheader
time	pelvis_tilt	pelvis_list	pelvis_rotation	pelvis_tx	pelvis_ty	pelvis_tz	hip_flexion_r	hip_adduction_r	hip_rotation_r	knee_angle_r	ankle_angle_r	subtalar_angle_r	mtp_angle_r	hip_flexion_l	hip_adduction_l	hip_rotation_l	knee_angle_l	ankle_angle_l	subtalar_angle_l	mtp_angle_l	lumbar_extension	lumbar_bending	lumbar_rotation
      3.07500000	     15.95410995	     -4.09627042	      4.77734920	      0.34991423	      0.75522268	     -0.27554113	    -14.63311610	     10.50733082	      1.06410210	    -12.51063969	     28.34417083	     12.38685660	      0.00000000	     15.96144916	     -0.83412010	      5.58320573	    -64.47986048	     20.62586633	     -8.90708547	      0.00000000	    -33.97322381	      7.96584274	      1.12565527
      3.08000000	     16.08706366	     -4.18917679	      4.17780896	      0.35746547	      0.75494744	     -0.27507325	    -15.65177876	     10.44331729	      1.29662022	    -12.13585412	     28.78382394	     13.08838814	      0.00000000	     16.36153445	     -0.86498063	      5.26445486	    -62.95274095	     20.74106263	     -9.09012047	      0.00000000	    -34.29044915	      7.84214763	      1.58800409
      3.08500000	     16.13263350	     -4.41058944	      3.57104739	      0.36496834	      0.75445670	     -0.27457432	    -16.53738463	     10.49975178	      1.58937243	    -11.81836746	     29.14414612	     13.66164545	      0.00000000	     16.86155860	     -1.05752200	      4.94752081	    -61.40202938	     20.90054240	     -9.18601348	      0.00000000	    -34.52213210	      7.82939050	      2.15639017
      3.09000000	     16.24081298	     -4.53382752	      2.96326323	      0.37250253	      0.75399076	     -0.27413963	    -17.50250389	     10.43143948	      1.85250693	    -11.50398276	     29.58755864	     14.28035330	      0.00000000	     17.21269421	     -1.15582577	      4.61025713	    -59.71333032	     21.04732175	     -9.14963930	      0.00000000	    -34.82118751	      7.73203590	      2.63434610
      3.09500000	     16.27179103	     -4.75350385	      2.36106207	      0.38000160	      0.75333862	     -0.27368840	    -18.35170589	     10.45372820	      2.12745358	    -11.24248560	     29.96584043	     14.80847064	      0.00000000	     17.63871947	     -1.37819018	      4.27328952	    -57.98368199	     21.24916424	     -9.03594304	      0.00000000	    -35.04099436	      7.72307885	      3.18117669
      3.10000000	     16.31837785	     -4.92940687	      1.75994575	      0.38751552	      0.75264935	     -0.27326623	    -19.21787986	     10.41456411	      2.39413475	    -10.99359969	     30.38828686	     15.32644524	      0.00000000	     17.98515287	     -1.56310478	      3.93185667	    -56.14645340	     21.46215185	     -8.76262043	      0.00000000	    -35.27621739	      7.67432547	      3.68164848
      3.10500000	     16.35277460	     -5.11879839	      1.16720882	      0.39503800	      0.75188337	     -0.27287188	    -20.05876827	     10.37597369	      2.63849514	    -10.77476827	     30.80160030	     15.82696109	      0.00000000	     18.29675966	     -1.77199200	      3.59314356	    -54.22164006	     21.70403176	     -8.36571650	      0.00000000	    -35.49756339	      7.64436626	      4.17563538
      3.11000000	     16.37036225	     -5.31020104	      0.58691887	      0.40256330	      0.75103876	     -0.27249579	    -20.87113280	     10.33079144	      2.86614441	    -10.58032825	     31.21455448	     16.30556730	      0.00000000	     18.57835860	     -1.98965580	      3.26405552	    -52.21134726	     21.97285303	     -7.82976451	      0.00000000	    -35.69855572	      7.62165728	      4.64885944
      3.11500000	     16.36858474	     -5.50930905	      0.01349670	      0.41009900	      0.75012157	     -0.27214399	    -21.65254022	     10.28201148	      3.07661719	    -10.41144989	     31.62111092	     16.76688268	      0.00000000	     18.82941947	     -2.22151136	      2.94041444	    -50.11608220	     22.26985490	     -7.15723635	      0.00000000	    -35.87567748	      7.61454084	      5.10335239
      3.12000000	     16.34301439	     -5.71131646	     -0.54738164	      0.41764783	      0.74913193	     -0.27181338	    -22.39649256	     10.22896749	      3.26593649	    -10.27291421	     32.02014696	     17.21294694	      0.00000000	     19.05336266	     -2.46319439	      2.61686914	    -47.93453427	     22.58893169	     -6.34286872	      0.00000000	    -36.02584889	      7.61866774	      5.55777700
      3.12500000	     16.29505005	     -5.92225252	     -1.10360559	      0.42521355	      0.74807833	     -0.27148802	    -23.10721260	     10.17554356	      3.43575396	    -10.15971271	     32.40802227	     17.65095754	      0.00000000	     19.24618977	     -2.72084484	      2.29824951	    -45.67179826	     22.92617371	     -5.39695275	      0.00000000	    -36.14814214	      7.63423117	      5.99775181
      3.13000000	     16.22512314	     -6.13886908	     -1.65118720	      0.43280432	      0.74696763	     -0.27118326	    -23.78660372	     10.11857669	      3.58417564	    -10.07020766	     32.78124222	     18.08801131	      0.00000000	     19.40597995	     -2.98854866	      1.98142236	    -43.33066495	     23.27279351	     -4.33157751	      0.00000000	    -36.24300826	      7.66590677	      6.42747845
      3.13500000	     16.13124094	     -6.36076695	     -2.19059439	      0.44042003	      0.74580586	     -0.27089533	    -24.43059224	     10.05867230	      3.71122930	    -10.00821217	     33.13621961	     18.52639855	      0.00000000	     19.53432247	     -3.26464316	      1.66840063	    -40.91598109	     23.61135341	     -3.16588209	      0.00000000	    -36.30809673	      7.71164146	      6.85050837
      3.14000000	     16.01122639	     -6.58655243	     -2.72369387	      0.44808064	      0.74459638	     -0.27060612	    -25.04016249	      9.99500748	      3.81782940	     -9.97166470	     33.47024459	     18.97207378	      0.00000000	     19.63061096	     -3.55168551	      1.34462826	    -38.43407078	     23.93617631	     -1.92253076	      0.00000000	    -36.33882643	      7.76787079	      7.26368009
